# xmcd
#
# Track frame offsets: 
#        150
#        35022
#        75975
#        103295
#        140211
#        172924
#        213129
#        259562
#
# Disc length: 3741 seconds
#
# Revision: 1
# Processed by: cddbd v1.5.1PL2 Copyright (c) Steve Scherf et al.
# Submitted via: ExactAudioCopy v0.95b3
#
DISCID=670e9b08
DTITLE=Vince Mendoza - Epiphany
DYEAR=1997
DGENRE=Jazz
TTITLE0=Barcelona
TTITLE1=Sanctus
TTITLE2=Ambivalence
TTITLE3=Esperanca
TTITLE4=Impromptu
TTITLE5=Epiphany
TTITLE6=Wheaten Sky
TTITLE7=Deep Song
EXTD=London Symphony Orchestra
EXTT0=
EXTT1=
EXTT2=
EXTT3=
EXTT4=
EXTT5=
EXTT6=
EXTT7=
PLAYORDER=
